<svg id="Void_monogram_white" xmlns="http://www.w3.org/2000/svg" width="866.283" height="589.396" viewBox="0 0 866.283 589.396">
  <g id="Group_100" dataName="Group 100" transform="translate(866.283 589.396) rotate(180)">
    <g id="Group_93" dataName="Group 93" transform="translate(866.283 589.396) rotate(180)" opacity="0.996">
      <path id="Path_20" dataName="Path 20" d="M866.283,0,595,491.754a257.206,257.206,0,0,1-32.2,45.428q-18.6,21-51.819,36.6T431.347,589.4q-44.416,0-78.835-16.4-34.4-16.419-55.2-38.611-20.832-22.208-28.424-39.417L0,0H186.869L401.736,386.931q9.207,16.8,13.809,22.4c3.053,3.749,8.067,5.6,15,5.6q11.2,0,16.213-5.995t13.809-22L677.026,0Z" transform="translate(0 0)" fill="#fff"/>
    </g>
    <path id="Path_22" dataName="Path 22" d="M0,0,81.023,149.157q2.3,5.181,8.571,11.881a55.314,55.314,0,0,0,40.392,16.582q13.981,0,23.984-4.7,10.025-4.7,15.622-11.033A77.214,77.214,0,0,0,179.3,148.2L261.055,0Z" transform="translate(562.487 589.396) rotate(180)" fill="#fff"/>
  </g>
</svg>
